<svg width="33" height="33" viewBox="0 0 33 33" fill="none" xmlns="http://www.w3.org/2000/svg">
<path d="M16.5 4.125C13.778 4.13354 11.1488 5.11528 9.08738 6.89287C7.5075 8.25413 6.36281 10.0279 6.06787 11.8078C2.61112 12.5709 0 15.5822 0 19.2184C0 23.4424 3.52275 26.8125 7.79831 26.8125H26.1669C29.9104 26.8125 33 23.8631 33 20.1568C33 16.7826 30.4384 14.0332 27.1549 13.5692C26.6537 8.24794 22.0481 4.125 16.5 4.125ZM21.3551 18.2614L17.2301 22.3864C17.1343 22.4824 17.0205 22.5586 16.8952 22.6106C16.77 22.6626 16.6356 22.6893 16.5 22.6893C16.3644 22.6893 16.23 22.6626 16.1048 22.6106C15.9795 22.5586 15.8657 22.4824 15.7699 22.3864L11.6449 18.2614C11.549 18.1655 11.4729 18.0517 11.421 17.9264C11.3692 17.8011 11.3424 17.6668 11.3424 17.5312C11.3424 17.3957 11.3692 17.2614 11.421 17.1361C11.4729 17.0108 11.549 16.897 11.6449 16.8011C11.8385 16.6075 12.1011 16.4987 12.375 16.4987C12.5106 16.4987 12.6449 16.5254 12.7701 16.5773C12.8954 16.6292 13.0092 16.7052 13.1051 16.8011L15.4688 19.1668V11.3438C15.4688 11.0702 15.5774 10.8079 15.7708 10.6145C15.9642 10.4211 16.2265 10.3125 16.5 10.3125C16.7735 10.3125 17.0358 10.4211 17.2292 10.6145C17.4226 10.8079 17.5312 11.0702 17.5312 11.3438V19.1668L19.8949 16.8011C20.0885 16.6075 20.3512 16.4987 20.625 16.4987C20.8988 16.4987 21.1615 16.6075 21.3551 16.8011C21.5488 16.9948 21.6576 17.2574 21.6576 17.5312C21.6576 17.8051 21.5488 18.0677 21.3551 18.2614Z" fill="#00274D"/>
</svg>
