<svg width="32" height="32" viewBox="0 0 32 32" fill="none" xmlns="http://www.w3.org/2000/svg">
<path fill-rule="evenodd" clip-rule="evenodd" d="M31.708 10.292C31.8011 10.3848 31.875 10.4952 31.9254 10.6167C31.9758 10.7382 32.0018 10.8684 32.0018 11C32.0018 11.1315 31.9758 11.2617 31.9254 11.3832C31.875 11.5047 31.8011 11.6151 31.708 11.708L25.708 17.708C25.6151 17.8011 25.5048 17.875 25.3833 17.9254C25.2618 17.9758 25.1315 18.0017 25 18.0017C24.8685 18.0017 24.7382 17.9758 24.6167 17.9254C24.4953 17.875 24.3849 17.8011 24.292 17.708L21.292 14.708C21.1042 14.5202 20.9987 14.2655 20.9987 14C20.9987 13.7344 21.1042 13.4797 21.292 13.292C21.4798 13.1042 21.7345 12.9987 22 12.9987C22.2656 12.9987 22.5202 13.1042 22.708 13.292L25 15.586L30.292 10.292C30.3849 10.1988 30.4953 10.1249 30.6167 10.0745C30.7382 10.0241 30.8685 9.99817 31 9.99817C31.1315 9.99817 31.2618 10.0241 31.3833 10.0745C31.5048 10.1249 31.6151 10.1988 31.708 10.292Z" fill="#00274D"/>
<path d="M2 28C2 28 0 28 0 26C0 24 2 18 12 18C22 18 24 24 24 26C24 28 22 28 22 28H2ZM12 16C13.5913 16 15.1174 15.3679 16.2426 14.2426C17.3679 13.1174 18 11.5913 18 10C18 8.4087 17.3679 6.88258 16.2426 5.75736C15.1174 4.63214 13.5913 4 12 4C10.4087 4 8.88258 4.63214 7.75736 5.75736C6.63214 6.88258 6 8.4087 6 10C6 11.5913 6.63214 13.1174 7.75736 14.2426C8.88258 15.3679 10.4087 16 12 16Z" fill="#00274D"/>
</svg>
