<svg width="28" height="21" viewBox="0 0 28 21" fill="none" xmlns="http://www.w3.org/2000/svg">
<g clip-path="url(#clip0_47_56)">
<g opacity="0.8">
<path d="M0 9.57203H6.79115C6.67485 14.5723 5.27145 15.1399 3.50794 15.3045L2.82815 15.3896V20.8865L3.61187 20.8439C5.91529 20.7128 8.45972 20.2939 10.1581 18.1764C11.6469 16.3198 12.3031 13.2862 12.3031 8.62986V0H0V9.57203Z" fill="#030870"/>
<path d="M15.6969 0V9.57203H22.3976C22.2813 14.5723 20.9229 15.1399 19.1599 15.3045L18.5251 15.3896V20.8865L19.2633 20.8439C21.5667 20.7128 24.1336 20.2939 25.832 18.1764C27.3208 16.3198 27.9994 13.2862 27.9994 8.62986V0H15.6969Z" fill="#030870"/>
</g>
</g>
<defs>
<clipPath id="clip0_47_56">
<rect width="28" height="21" fill="white"/>
</clipPath>
</defs>
</svg>
